<svg xmlns="http://www.w3.org/2000/svg" width="615.804" height="342.929" viewBox="0 0 615.804 342.929">
  <g id="Group_22" data-name="Group 22" transform="translate(-1059.099 -368.071)">
    <path id="Path_1" data-name="Path 1" d="M643.8,364.866a97.192,97.192,0,0,1-14.06,50.535c0,18.636-8.688,35.527-22.78,47.838a77.91,77.91,0,0,1-11.347,8.225c-.161.1-.328.2-.5.3-.3.178-.6.355-.91.538l-.285.167h0c-1.287.727-2.6,1.426-3.94,2.083a89.178,89.178,0,0,1-39.7,9.151H144.9q-4.845,0-9.6-.388a113.659,113.659,0,0,1-32.868-7.611q-3.079-1.217-6.04-2.616-1.41-.662-2.794-1.362c-.576-.291-1.152-.592-1.723-.894a102.543,102.543,0,0,1-10.044-6.1,98.983,98.983,0,0,1-8.5-6.524c-18.318-15.718-29.649-37.47-29.649-61.473A97.161,97.161,0,0,1,28,343.609c0-53.366,42.654-96.628,95.277-96.628,1.615,0,3.23.048,4.845.135a4.923,4.923,0,0,1,.689.032A164.159,164.159,0,0,1,163.8,205.9c38.886-33.32,95.719-54.324,159.027-54.324,53.194,0,101.817,14.83,139.062,39.333a93.759,93.759,0,0,1,46.266-12.138c52.612,0,95.277,43.262,95.277,96.628a99.549,99.549,0,0,1-.538,10.109,96.892,96.892,0,0,1,40.91,79.355Z" transform="translate(1031.099 227.3)" fill="#6c63ff" opacity="0.1"/>
    <path id="Path_2" data-name="Path 2" d="M635.517,351.468v-5.776a21.02,21.02,0,1,0-15.815,0v5.776a29.606,29.606,0,0,0-13.748,8.36,29.649,29.649,0,0,0-16.73-12.122v-5.781a21.02,21.02,0,1,0-15.815,0V347.7a29.605,29.605,0,0,0-12.494,7.084,29.649,29.649,0,0,0-15.831-10.852v-5.776a21.02,21.02,0,1,0-15.815,0v5.776a29.606,29.606,0,0,0-14,8.645,29.654,29.654,0,0,0-19.685-17.8V329a21.02,21.02,0,1,0-15.815,0v5.776a29.606,29.606,0,0,0-21.532,25.714,29.4,29.4,0,0,0-8.919-4.182v-5.776a21.02,21.02,0,1,0-15.815,0v5.776a29.7,29.7,0,0,0-18.657,15.449,29.381,29.381,0,0,0-8.074-3.607v-5.776a21.02,21.02,0,1,0-15.815,0v5.776a29.225,29.225,0,0,0-7.649,3.348,29.681,29.681,0,0,0-18.523-15.191v-5.776a21.02,21.02,0,1,0-15.815,0v5.776a29.66,29.66,0,0,0-19.308,16.881,29.606,29.606,0,0,0-10.093-5.038v-5.776a21.02,21.02,0,1,0-15.815,0v5.776a29.606,29.606,0,0,0-21.7,28.529v133.5h59.18V518.337h27.991V530.18h59.212V518.337h42.525V496.806h36.6v9.151h44.14v3.768H598v3.768h59.212V380a29.606,29.606,0,0,0-21.7-28.529Z" transform="translate(913.797 164.079)" fill="#6c63ff" opacity="0.1"/>
    <path id="Path_3" data-name="Path 3" d="M412.16,169h49.216a91.661,91.661,0,0,1,91.665,91.665V384.854H320.5V260.66A91.66,91.66,0,0,1,412.16,169Z" transform="translate(911.121 290.042)" fill="#2f2e41"/>
    <path id="Path_4" data-name="Path 4" d="M422.16,178.28h38.45a91.661,91.661,0,0,1,91.665,91.665V384.138H330.5V269.94a91.66,91.66,0,0,1,91.66-91.66Z" transform="translate(906.504 285.758)" opacity="0.2"/>
    <path id="Path_5" data-name="Path 5" d="M636.145,698.5v9.4a89.18,89.18,0,0,1-39.7,9.151H191.071q-4.845,0-9.6-.388a113.659,113.659,0,0,1-32.868-7.611q-3.079-1.217-6.04-2.616-1.41-.662-2.794-1.362c-.576-.291-1.152-.592-1.723-.893A102.547,102.547,0,0,1,128,698.082V672.557A15.557,15.557,0,0,1,143.557,657H591a15.557,15.557,0,0,1,10.227,3.859l29.606,25.946A15.54,15.54,0,0,1,636.145,698.5Z" transform="translate(984.928 -6.058)" fill="#2f2e41"/>
    <path id="Path_6" data-name="Path 6" d="M404.463,353.279q-17.607,1.163-35.08,3.768a33.223,33.223,0,0,0-9.689,2.508,28.423,28.423,0,0,0-6.427,4.608A84.716,84.716,0,0,0,332.811,391.9c-3,6.54-5.151,13.457-7.977,20.051-10.061,23.55-28.309,42.81-38.929,66.113a57.822,57.822,0,0,0-5.006,15.793c-.8,5.674.108,12.295,4.769,15.61A19.278,19.278,0,0,0,293,512.16a883.6,883.6,0,0,0,97.737,15.96c-3.558-3.434-4.748-8.758-4.279-13.678s2.4-9.571,4.306-14.13q-27.889-6.153-55.638-12.919c-2.761-.673-6.077-1.938-6.416-4.758a7.033,7.033,0,0,1,1.238-4.086,219.175,219.175,0,0,1,28.206-39.833c0,15.1-.748,32.163-.748,47.273h174.46a133.487,133.487,0,0,1-3.682-26.3c-.813-28.938,8.93-57.656,6.4-86.535-.237-2.665-.6-5.41-2-7.692-2.406-3.94-7.208-5.571-11.622-6.917-16.924-5.146-34.2-10.351-51.891-9.948-5.259.124-10.5.737-15.723,1.357C437.423,351.836,420.467,352.218,404.463,353.279Z" transform="translate(914.452 136.344)" fill="#6c63ff"/>
    <path id="Path_7" data-name="Path 7" d="M358.831,674.824l12.7,40.657a1.27,1.27,0,0,0,1.211.888h54.513L414.34,669l-54.4,4.182a1.27,1.27,0,0,0-1.109,1.642Z" transform="translate(878.377 -11.598)" fill="#656478"/>
    <path id="Path_8" data-name="Path 8" d="M498.85,371.828a23.566,23.566,0,0,1-7.821,2.32l-17.371,3.014c-3.38.587-6.939,1.254-9.544,3.488-5.329,4.559-4.177,12.951-2.562,19.777l3.23,13.694c2.433,10.292,4.92,20.708,9.91,30.031,8.715,16.272,24.7,27.991,42.283,33.638,6.282,2.019,12.919,3.332,19.475,2.611,12.844-1.41,23.83-10.567,30.6-21.575s10-23.776,12.951-36.361c2.837-12.047,5.534-24.266,5.351-36.647-.054-3.854-.441-7.881-2.5-11.148-4.505-7.175-14.717-7.714-23.087-6.39a8.565,8.565,0,0,1-3.908.043c-3.768-1.173-3.854-6.346-5.469-9.937-3.052-6.772-12.106-7.972-19.508-7.358s-18.926,1.4-25.375,5.6C499.307,360.637,506.122,367.635,498.85,371.828Z" transform="translate(831.547 135.278)" fill="#fbbebe"/>
    <path id="Path_9" data-name="Path 9" d="M498.85,371.828a23.566,23.566,0,0,1-7.821,2.32l-17.371,3.014c-3.38.587-6.939,1.254-9.544,3.488-5.329,4.559-4.177,12.951-2.562,19.777l3.23,13.694c2.433,10.292,4.92,20.708,9.91,30.031,8.715,16.272,24.7,27.991,42.283,33.638,6.282,2.019,12.919,3.332,19.475,2.611,12.844-1.41,23.83-10.567,30.6-21.575s10-23.776,12.951-36.361c2.837-12.047,5.534-24.266,5.351-36.647-.054-3.854-.441-7.881-2.5-11.148-4.505-7.175-14.717-7.714-23.087-6.39a8.565,8.565,0,0,1-3.908.043c-3.768-1.173-3.854-6.346-5.469-9.937-3.052-6.772-12.106-7.972-19.508-7.358s-18.926,1.4-25.375,5.6C499.307,360.637,506.122,367.635,498.85,371.828Z" transform="translate(831.547 135.278)" opacity="0.1"/>
    <path id="Path_10" data-name="Path 10" d="M476.521,404.652c2.627,5.512,4.6,11.358,7.773,16.574a81.883,81.883,0,0,0,8.979,11.433c8.338,9.431,16.784,18.937,27.1,26.118A120,120,0,0,1,550.18,400.1c4.446-4.775,10.012-9.479,16.536-9.3,4.048.113,7.784,2.121,11.153,4.355a39.906,39.906,0,0,1,10.039,8.973c4.279,5.717,6.126,12.957,6.459,20.089s-.775,14.249-1.873,21.3l-5.652,36.448c-.328,2.11-.786,4.441-2.508,5.706a7.9,7.9,0,0,1-3.23,1.163c-20.547,4-41.723,1.4-62.657,1.2-23.146-.221-46.933,2.417-68.858-4.947a6.7,6.7,0,0,1-3.111-1.755,6.491,6.491,0,0,1-1.077-2.32c-5.108-16.536-1.012-34.305,2.019-51.342a402.841,402.841,0,0,0,5.119-40.792c.091-1.233,13.635,1.491,15.147,2.363C471.805,393.681,474.54,400.5,476.521,404.652Z" transform="translate(839.498 117.882)" fill="#6c63ff"/>
    <g id="Group_3" data-name="Group 3" transform="translate(1117.217 512.197)" opacity="0.2">
      <path id="Path_11" data-name="Path 11" d="M185.77,661.662a6.409,6.409,0,0,1-.054.727q-3.079-1.217-6.04-2.616a4.9,4.9,0,0,1-2.794-1.362c-.576-.291-1.152-.592-1.723-.893a7.371,7.371,0,0,1,.436-.786,5.008,5.008,0,0,1,9.113.28A9.081,9.081,0,0,1,185.77,661.662Z" transform="translate(-154.064 -516.839)" fill="#3f3d56"/>
      <path id="Path_12" data-name="Path 12" d="M185.525,644.542a9.086,9.086,0,0,1-1.351,4.565,5.419,5.419,0,0,1-4.651,2.788l-.382-.027a4.9,4.9,0,0,1-2.794-1.362,6.746,6.746,0,0,1-1.286-1.68,9.447,9.447,0,0,1,.291-9.216,5.008,5.008,0,0,1,9.113.28A9.081,9.081,0,0,1,185.525,644.542Z" transform="translate(-153.528 -508.935)" fill="#3f3d56"/>
      <ellipse id="Ellipse_1" data-name="Ellipse 1" cx="7.541" cy="5.76" rx="7.541" ry="5.76" transform="translate(20.535 133.582) rotate(-88.19)" fill="#3f3d56"/>
      <ellipse id="Ellipse_2" data-name="Ellipse 2" cx="7.541" cy="5.76" rx="7.541" ry="5.76" transform="translate(20.829 124.366) rotate(-88.19)" fill="#3f3d56"/>
      <ellipse id="Ellipse_3" data-name="Ellipse 3" cx="7.541" cy="5.76" rx="7.541" ry="5.76" transform="translate(21.118 115.15) rotate(-88.19)" fill="#3f3d56"/>
      <path id="Path_13" data-name="Path 13" d="M143.523,443.281a26.731,26.731,0,0,1-2.046-3.23l15.212-2.008-16.4-.388a27.657,27.657,0,0,1,.167-21.876l21.6,12.079-19.782-15.524a27.6,27.6,0,1,1,44.592,32.3,27.518,27.518,0,0,1,2.988,5.13l-19.954,9.6L191.071,453a27.636,27.636,0,0,1-5.275,25.784,27.6,27.6,0,1,1-43.348-1.383,27.6,27.6,0,0,1,1.077-34.117Z" transform="translate(-135.97 -399.247)" fill="#6c63ff"/>
      <path id="Path_14" data-name="Path 14" d="M192.237,515.236a27.485,27.485,0,0,1-6.459,16.875,27.6,27.6,0,1,1-43.332-1.367C138.876,525.932,192.334,512.141,192.237,515.236Z" transform="translate(-135.968 -452.593)" opacity="0.1"/>
    </g>
    <circle id="Ellipse_4" data-name="Ellipse 4" cx="11.643" cy="11.643" r="11.643" transform="translate(1084.07 432.424)" fill="#6c63ff" opacity="0.1"/>
    <circle id="Ellipse_5" data-name="Ellipse 5" cx="11.643" cy="11.643" r="11.643" transform="translate(1132.597 368.071)" fill="#6c63ff" opacity="0.1"/>
    <circle id="Ellipse_6" data-name="Ellipse 6" cx="19.513" cy="19.513" r="19.513" transform="translate(1120.781 404.411)" fill="#6c63ff" opacity="0.1"/>
    <circle id="Ellipse_7" data-name="Ellipse 7" cx="45.216" cy="45.216" r="45.216" transform="translate(1306.174 422.708)" fill="#fbbebe"/>
    <path id="Path_15" data-name="Path 15" d="M485.79,149.541c-12.063,1.529-25.084,3.547-33.611,12.214-4.769,4.845-7.563,11.3-9.861,17.7-3.563,9.958-6.217,20.455-5.383,31.022.743,9.452,4.242,19.12,1.41,28.174-1.3,4.166-3.86,7.805-5.846,11.686-3.682,7.208-5.415,15.287-6.05,23.356-.441,5.55-.355,11.261,1.47,16.52,1.943,5.6,5.733,10.362,8.134,15.777,3.553,8,3.908,17,4.182,25.746s.506,17.435.711,26.15c.129,5.48.14,11.347-2.891,15.917,11.191-4.484,22.538-9.059,32.114-16.38s17.328-17.877,18.566-29.87c1-9.722-2.282-19.3-5.114-28.659-7-23.146-11.519-47.822-6.427-71.458,1.836-8.51,6.3-18.011,14.862-19.578,5.227-.953,10.443,1.432,15.153,3.9,11.132,5.824,22.608,13.36,26.753,25.219,3.768,10.723.6,22.667-4.306,32.906s-11.579,19.653-15.39,30.354c-5.851,16.418-4.2,35.64,5.517,50.1s27.684,23.362,44.958,21.026c-1.351-5.835-5.587-10.55-7.859-16.095-4.129-10.071-1.346-21.655,3.1-31.592s10.5-19.2,13.28-29.751c1.959-7.428,2.2-15.19,2.185-22.872,0-12.09-.6-24.185-1.76-36.221s-2.939-24.223-6.772-35.8c-3.079-9.285-7.563-18.264-14.27-25.386-7.138-7.584-16.429-12.725-25.553-17.764-5.458-3-11.035-6.045-17.161-7.17-4.845-.888-9.937-2.153-14.878-2.234C491.69,146.43,488.159,147.156,485.79,149.541Z" transform="translate(847.233 229.657)" fill="#434175"/>
    <rect id="Rectangle_2" data-name="Rectangle 2" width="32.755" height="76.297" rx="2.9" transform="matrix(0.982, 0.19, -0.19, 0.982, 1387.503, 431.618)" fill="#656478"/>
    <rect id="Rectangle_3" data-name="Rectangle 3" width="32.755" height="76.297" rx="2.9" transform="matrix(0.982, 0.19, -0.19, 0.982, 1389.702, 432.045)" fill="#3f3d56"/>
    <ellipse id="Ellipse_8" data-name="Ellipse 8" cx="5.41" cy="2.234" rx="5.41" ry="2.234" transform="matrix(0.19, -0.982, 0.982, 0.19, 1399.376, 456.266)" fill="#6c63ff"/>
    <path id="Path_16" data-name="Path 16" d="M658.087,321.635c-1.421-2.514-2.939-5.114-5.334-6.723a18.839,18.839,0,0,0-4.4-1.976c-5.216-1.825-10.518-3.666-16.036-3.956a3.017,3.017,0,0,0-2.514.689c-1.206,1.416.705,3.343,2.358,4.2l13.145,6.809L633.185,319.4c-1.76-.188-4.269.291-4.139,2.056.086,1.157,1.357,1.787,2.455,2.153,7.778,2.691,16.768,4.8,21.026,11.842-5.674-.538-11.471-1.077-17.031.172a7.206,7.206,0,0,0-4.1,2.078c-1,1.2-1.109,3.23.145,4.182a4.225,4.225,0,0,0,2.788.538c3.946-.188,7.994-.974,11.783.151s7.154,5.1,5.846,8.823a21.271,21.271,0,0,0,10.437-1.448c3.424-1.615,3.343-4.651,3.133-8.311C665.084,334.463,661.526,327.772,658.087,321.635Z" transform="translate(753.592 154.632)" fill="#fbbebe"/>
    <path id="Path_17" data-name="Path 17" d="M661.7,466.6a605.7,605.7,0,0,0-12.381-62.937c-2.691-10.766-5.749-21.715-4.979-32.793,11.121,1.416,21.085,2.465,31.334-2.078.167,5.819,4.387,10.766,5.921,16.391,1.028,3.768.641,7.757,1.044,11.638a71.345,71.345,0,0,0,2.654,11.417,140.078,140.078,0,0,1,3.569,57.457C679.347,466.823,671.186,468.067,661.7,466.6Z" transform="translate(746.586 127.012)" opacity="0.1"/>
    <path id="Path_18" data-name="Path 18" d="M658.7,466.6a605.7,605.7,0,0,0-12.381-62.937c-2.691-10.766-5.749-21.715-4.979-32.793,11.121,1.416,21.085,2.465,31.334-2.078.167,5.819,4.387,10.766,5.921,16.391,1.028,3.768.641,7.757,1.044,11.638a71.345,71.345,0,0,0,2.654,11.417,140.077,140.077,0,0,1,3.569,57.457C676.347,466.823,668.186,468.067,658.7,466.6Z" transform="translate(747.971 127.012)" fill="#6c63ff"/>
    <path id="Path_19" data-name="Path 19" d="M384.625,626.55l5.27-130.734a8,8,0,0,1,8.074-7.676l208.06,1.992a8,8,0,0,1,7.886,8.7L602.922,624.074a8,8,0,0,1-7.832,7.3l-202.332,3.5a8,8,0,0,1-8.134-8.322Z" transform="translate(866.445 71.907)" fill="#3f3d56"/>
    <ellipse id="Ellipse_9" data-name="Ellipse 9" cx="9.151" cy="10.766" rx="9.151" ry="10.766" transform="translate(1358.119 608.687)" fill="#6c63ff"/>
    <path id="Path_20" data-name="Path 20" d="M921.712,584.76l-.431,3.693-7,59.675c-18.243,12.72-32.432.5-32.556,0l-8.817-59.955-.5-3.413Z" transform="translate(641.226 27.296)" fill="#3f3d56"/>
    <path id="Path_21" data-name="Path 21" d="M921.712,584.76l-.431,3.693c-20.552,11.95-42.476,2.648-48.371-.28l-.5-3.413Z" transform="translate(641.226 27.296)" opacity="0.1"/>
    <path id="Path_22" data-name="Path 22" d="M870.5,578.74v5.383s27.184,15.8,51.676,0V578.74Z" transform="translate(642.108 30.076)" fill="#6c63ff"/>
    <path id="Path_23" data-name="Path 23" d="M873.66,565.53s-.791,3.633-3.16,3.951v4.581h51.676v-4.107a3.819,3.819,0,0,1-2.691-4.425Z" transform="translate(642.108 36.175)" fill="#6c63ff"/>
    <ellipse id="Ellipse_10" data-name="Ellipse 10" cx="23.308" cy="6.718" rx="23.308" ry="6.718" transform="translate(1514.982 595.38)" fill="#6c63ff"/>
    <ellipse id="Ellipse_11" data-name="Ellipse 11" cx="23.308" cy="6.718" rx="23.308" ry="6.718" transform="translate(1514.982 595.38)" opacity="0.1"/>
    <path id="Path_24" data-name="Path 24" d="M922.335,561.324c0,2.691-8.839,4.9-19.75,4.9H902c-7.326-.054-13.656-1.077-16.886-2.605-1.459-.689-2.288-1.47-2.288-2.293,0-1.367,2.261-2.605,5.921-3.493a61.092,61.092,0,0,1,13.85-1.4C913.5,556.425,922.335,558.616,922.335,561.324Z" transform="translate(636.415 40.381)" opacity="0.1"/>
    <path id="Path_25" data-name="Path 25" d="M903.966,567.413c-7.326-.054-13.656-1.077-16.886-2.605h0L890.7,559Z" transform="translate(634.453 39.19)" opacity="0.1"/>
    <path id="Path_26" data-name="Path 26" d="M879.494,566.216c-.28-.059-.651.038-.705.318a.683.683,0,0,0,.108.4,5.744,5.744,0,0,0,2.573,2.2,1.533,1.533,0,0,0,.587.188.538.538,0,0,0,.538-.28.608.608,0,0,0-.038-.5,2.224,2.224,0,0,0-.668-.732C881.169,567.249,880.431,566.372,879.494,566.216Z" transform="translate(638.281 35.866)" opacity="0.1"/>
    <circle id="Ellipse_12" data-name="Ellipse 12" cx="13.904" cy="13.904" r="13.904" transform="translate(1525.171 631.812)" fill="#6c63ff"/>
    <path id="Path_27" data-name="Path 27" d="M176.787,515.85h6.519a13.457,13.457,0,0,1,13.457,13.457v20H163.33v-20A13.457,13.457,0,0,1,176.787,515.85Z" transform="translate(983.688 129.898)" fill="#3f3d56"/>
    <path id="Path_28" data-name="Path 28" d="M176.787,515.85h6.519a13.457,13.457,0,0,1,13.457,13.457v20H163.33v-20A13.457,13.457,0,0,1,176.787,515.85Z" transform="translate(983.688 129.898)" opacity="0.1"/>
    <circle id="Ellipse_13" data-name="Ellipse 13" cx="2.675" cy="2.675" r="2.675" transform="translate(1159.721 647.756)" fill="#3f3d56"/>
    <circle id="Ellipse_14" data-name="Ellipse 14" cx="2.675" cy="2.675" r="2.675" transform="translate(1159.721 644.413)" fill="#3f3d56"/>
    <circle id="Ellipse_15" data-name="Ellipse 15" cx="2.675" cy="2.675" r="2.675" transform="translate(1159.721 641.065)" fill="#3f3d56"/>
    <circle id="Ellipse_16" data-name="Ellipse 16" cx="2.675" cy="2.675" r="2.675" transform="translate(1159.721 637.722)" fill="#3f3d56"/>
    <circle id="Ellipse_17" data-name="Ellipse 17" cx="2.675" cy="2.675" r="2.675" transform="translate(1159.721 634.379)" fill="#3f3d56"/>
    <circle id="Ellipse_18" data-name="Ellipse 18" cx="2.675" cy="2.675" r="2.675" transform="translate(1159.721 631.036)" fill="#3f3d56"/>
    <circle id="Ellipse_19" data-name="Ellipse 19" cx="2.675" cy="2.675" r="2.675" transform="translate(1159.721 627.694)" fill="#3f3d56"/>
    <circle id="Ellipse_20" data-name="Ellipse 20" cx="2.675" cy="2.675" r="2.675" transform="translate(1163.737 629.029)" fill="#3f3d56"/>
    <circle id="Ellipse_21" data-name="Ellipse 21" cx="2.675" cy="2.675" r="2.675" transform="translate(1166.412 627.694)" fill="#3f3d56"/>
    <circle id="Ellipse_22" data-name="Ellipse 22" cx="2.675" cy="2.675" r="2.675" transform="translate(1169.088 626.353)" fill="#3f3d56"/>
    <circle id="Ellipse_23" data-name="Ellipse 23" cx="2.675" cy="2.675" r="2.675" transform="translate(1159.721 624.351)" fill="#3f3d56"/>
    <circle id="Ellipse_24" data-name="Ellipse 24" cx="2.675" cy="2.675" r="2.675" transform="translate(1159.721 621.008)" fill="#3f3d56"/>
    <circle id="Ellipse_25" data-name="Ellipse 25" cx="2.675" cy="2.675" r="2.675" transform="translate(1159.721 617.66)" fill="#3f3d56"/>
    <circle id="Ellipse_26" data-name="Ellipse 26" cx="2.675" cy="2.675" r="2.675" transform="translate(1159.721 614.317)" fill="#3f3d56"/>
    <path id="Path_29" data-name="Path 29" d="M221.238,569.809c-.662.1-1.33.167-2,.21a15.378,15.378,0,0,0,1.728-1.776,11.424,11.424,0,0,0-1.615-3.138,5.5,5.5,0,0,1-2.153.678c-.662.1-1.33.167-2,.215a33.359,33.359,0,0,0,2.557-2.691,11.353,11.353,0,1,0,3.558,6.46Z" transform="translate(952.247 38.56)" fill="#6c63ff"/>
    <path id="Path_30" data-name="Path 30" d="M247.972,601.476a5.211,5.211,0,0,1-2.25.748c-.662.1-1.33.172-2,.215a19.6,19.6,0,0,0,1.981-2.056,6.7,6.7,0,1,0,2.266,1.077Z" transform="translate(934.454 20.184)" fill="#6c63ff"/>
    <circle id="Ellipse_27" data-name="Ellipse 27" cx="2.675" cy="2.675" r="2.675" transform="translate(1155.711 629.029)" fill="#3f3d56"/>
    <circle id="Ellipse_28" data-name="Ellipse 28" cx="2.675" cy="2.675" r="2.675" transform="translate(1153.036 627.694)" fill="#3f3d56"/>
    <circle id="Ellipse_29" data-name="Ellipse 29" cx="2.675" cy="2.675" r="2.675" transform="translate(1150.36 626.353)" fill="#3f3d56"/>
    <path id="Path_31" data-name="Path 31" d="M180.349,601.476a5.189,5.189,0,0,0,2.25.748c.662.1,1.33.172,2,.215a19.058,19.058,0,0,1-1.981-2.056,6.7,6.7,0,1,1-2.266,1.077Z" transform="translate(962.024 20.184)" fill="#6c63ff"/>
    <path id="Path_32" data-name="Path 32" d="M176.787,519.58h6.519a13.457,13.457,0,0,1,13.457,13.457v17.694a2.282,2.282,0,0,1-2.282,2.282H165.612a2.282,2.282,0,0,1-2.282-2.282V533.037A13.457,13.457,0,0,1,176.787,519.58Z" transform="translate(983.688 128.176)" fill="#3f3d56"/>
    <g id="Group_4" data-name="Group 4" transform="translate(1151.189 599.086)" opacity="0.1">
      <path id="Path_33" data-name="Path 33" d="M240.141,579.27a10.155,10.155,0,0,1-.861.818,8.735,8.735,0,0,0,.915-.081A4.808,4.808,0,0,0,240.141,579.27Z" transform="translate(-217.641 -569.255)"/>
      <path id="Path_34" data-name="Path 34" d="M231.82,571.419c.673-.043,1.335-.113,2-.21a6.457,6.457,0,0,0,1.739-.474,11.455,11.455,0,0,0-.937-1.545,4.05,4.05,0,0,1-1.077.457A15.5,15.5,0,0,1,231.82,571.419Z" transform="translate(-214.196 -564.601)"/>
      <path id="Path_35" data-name="Path 35" d="M200.259,573.226a11.347,11.347,0,0,1,17.494-9.56l.172-.183a11.358,11.358,0,1,0-14.975,17.08A11.3,11.3,0,0,1,200.259,573.226Z" transform="translate(-199.08 -560.665)"/>
    </g>
    <g id="Group_5" data-name="Group 5" transform="translate(1171.763 620.341)" opacity="0.1">
      <path id="Path_36" data-name="Path 36" d="M249.22,604.885c.667-.043,1.335-.113,2-.21a5.222,5.222,0,0,0,2.25-.754,6.691,6.691,0,0,1,2.691,4.737,6.129,6.129,0,0,0,.038-.705,6.664,6.664,0,0,0-2.691-5.383,5.21,5.21,0,0,1-2.25.748l-.538.07A13.665,13.665,0,0,1,249.22,604.885Z" transform="translate(-242.804 -601.267)"/>
      <path id="Path_37" data-name="Path 37" d="M243.986,601.485a5.5,5.5,0,0,1,.667.049c.35-.371.694-.77,1.044-1.157a6.675,6.675,0,0,0-8.4,6.46,4.582,4.582,0,0,0,.032.667A6.686,6.686,0,0,1,243.986,601.485Z" transform="translate(-237.3 -600.15)"/>
    </g>
    <g id="Group_6" data-name="Group 6" transform="translate(1139.643 620.341)" opacity="0.1">
      <path id="Path_38" data-name="Path 38" d="M184.606,604.885c-.667-.043-1.335-.113-2-.21a5.193,5.193,0,0,1-2.25-.754,6.691,6.691,0,0,0-2.691,4.737,6.122,6.122,0,0,1-.038-.705,6.664,6.664,0,0,1,2.691-5.383,5.189,5.189,0,0,0,2.25.748l.538.07a12.751,12.751,0,0,0,1.5,1.5Z" transform="translate(-177.63 -601.267)"/>
      <path id="Path_39" data-name="Path 39" d="M188.622,601.485a5.588,5.588,0,0,0-.673.048c-.345-.371-.689-.77-1.039-1.157a6.675,6.675,0,0,1,8.4,6.46,4.587,4.587,0,0,1-.032.667A6.686,6.686,0,0,0,188.622,601.485Z" transform="translate(-181.915 -600.15)"/>
    </g>
  </g>
</svg>
